<?xml version="1.0" encoding="iso-8859-1"?>
<!-- Generator: Adobe Illustrator 19.2.0, SVG Export Plug-In . SVG Version: 6.00 Build 0)  -->
<svg xmlns="http://www.w3.org/2000/svg" xmlns:xlink="http://www.w3.org/1999/xlink" version="1.1" id="Layer_1" x="0px" y="0px" viewBox="0 0 40 40" style="enable-background:new 0 0 40 40;" xml:space="preserve">
<g>
	<path style="fill:#B6DCFE;" d="M1.512,35.5c0.269-5.559,4.982-10,10.738-10h7.5c3.605,0,6.911,1.725,8.917,4.633L24.124,35.5H1.512   z"/>
	<g>
		<path style="fill:#4788C7;" d="M19.75,26c3.31,0,6.354,1.523,8.283,4.107L23.892,35L2.051,35c0.516-5.046,4.893-9,10.199-9H19.75     M19.75,25h-7.5C6.037,25,1,29.925,1,36v0h23.356l4.935-5.831C27.302,27.065,23.773,25,19.75,25L19.75,25z"/>
	</g>
</g>
<g>
	<path style="fill:#FFFFFF;" d="M16,28.5c-3.075,0-4.297-2.625-4.5-3.123V19.91h9v5.468C20.297,25.875,19.075,28.5,16,28.5z"/>
	<g>
		<path style="fill:#4788C7;" d="M20,20.41v4.865C19.737,25.865,18.607,28,16,28c-2.611,0-3.741-2.141-4-2.725V20.41H20 M21,19.41    H11v6.062c0,0,1.267,3.529,5,3.529s5-3.529,5-3.529V19.41L21,19.41z"/>
	</g>
</g>
<g>
	<g>
		<path style="fill:#B6DCFE;" d="M22.429,17.643c-1.143,0-2.071-0.929-2.071-2.071s0.929-2.071,2.071-2.071    c1.725,0,2.071,0.465,2.071,1.214C24.5,15.966,23.476,17.643,22.429,17.643z M9.571,17.643c-1.047,0-2.071-1.677-2.071-2.928    c0-0.75,0.347-1.214,2.071-1.214c1.143,0,2.071,0.929,2.071,2.071S10.714,17.643,9.571,17.643z"/>
	</g>
	<g>
		<path style="fill:#4788C7;" d="M22.429,14C24,14,24,14.363,24,14.714c0,1.044-0.896,2.429-1.571,2.429    c-0.867,0-1.571-0.705-1.571-1.571S21.562,14,22.429,14 M9.571,14c0.867,0,1.571,0.705,1.571,1.571s-0.705,1.571-1.571,1.571    C8.896,17.143,8,15.758,8,14.714C8,14.363,8,14,9.571,14 M22.429,13c-1.42,0-2.571,1.151-2.571,2.571s1.151,2.571,2.571,2.571    S25,16.134,25,14.714S23.849,13,22.429,13L22.429,13z M9.571,13C8.151,13,7,13.294,7,14.714s1.151,3.429,2.571,3.429    s2.571-1.151,2.571-2.571S10.992,13,9.571,13L9.571,13z"/>
	</g>
</g>
<g>
	<g>
		<path style="fill:#FFFFFF;" d="M16,24.5c-0.58,0-1.134-0.224-1.56-0.631l-0.09-0.086l-0.12-0.034    c-2.785-0.788-4.73-3.357-4.73-6.25V9.364c0-1.564,1.272-2.836,2.836-2.836h7.328c1.563,0,2.836,1.272,2.836,2.836V17.5    c0,2.892-1.945,5.462-4.73,6.25l-0.12,0.034l-0.09,0.086C17.134,24.276,16.58,24.5,16,24.5z"/>
	</g>
	<g>
		<path style="fill:#4788C7;" d="M19.664,7.028C20.952,7.028,22,8.076,22,9.364V17.5c0,2.67-1.796,5.042-4.367,5.768l-0.239,0.068    l-0.18,0.172C16.882,23.825,16.451,24,16,24s-0.882-0.175-1.215-0.492l-0.18-0.172l-0.239-0.068C11.796,22.542,10,20.17,10,17.5    V9.364c0-1.288,1.048-2.336,2.336-2.336H19.664 M19.664,6.028h-7.328C10.494,6.028,9,7.521,9,9.364V17.5    c0,3.205,2.156,5.9,5.095,6.731C14.591,24.705,15.26,25,16,25s1.409-0.295,1.905-0.769C20.844,23.4,23,20.705,23,17.5V9.364    C23,7.521,21.506,6.028,19.664,6.028L19.664,6.028z"/>
	</g>
</g>
<g>
	<path style="fill:#B6DCFE;" d="M22.5,15.5V12c0-3.483-2.218-4.425-2.312-4.463l-0.343-0.139l-0.234,0.288   C19.589,7.713,17.283,10.5,14,10.5c-0.264,0-0.529-0.009-0.791-0.017c-0.265-0.008-0.525-0.017-0.777-0.017   c-0.878,0-2.932,0-2.932,2.534v2.5H9.285C8.845,14.727,7.5,12.151,7.5,9.576C7.5,4.821,10.995,1.5,16,1.5   c3.095,0,4.543,2.704,4.557,2.731l0.119,0.227l0.253,0.037C22.462,4.714,24.5,5.524,24.5,10c0,2.329-1.338,4.761-1.778,5.5H22.5z"/>
	<g>
		<path style="fill:#4788C7;" d="M16,2c2.762,0,4.062,2.367,4.113,2.463l0.237,0.454l0.507,0.073C22.321,5.199,24,5.958,24,10    c0,1.395-0.515,2.842-1,3.894V12c0-3.816-2.516-4.883-2.623-4.926l-0.687-0.279l-0.467,0.577C19.201,7.397,17.06,10,14,10    c-0.259,0-0.519-0.008-0.775-0.017c-0.27-0.009-0.536-0.017-0.794-0.017C11.582,9.966,9,9.966,9,13v0.807    c-0.486-1.122-1-2.676-1-4.23C8,5.115,11.29,2,16,2 M16,1c-5.36,0-9,3.667-9,8.576C7,12.828,9,16,9,16h1c0,0,0-2.105,0-3    c0-1.791,1.085-2.034,2.431-2.034C12.932,10.966,13.469,11,14,11c3.573,0,6-3,6-3s2,0.813,2,4c0,0.984,0,4,0,4h1c0,0,2-3.037,2-6    c0-4.161-1.703-5.671-4-6C21,4,19.434,1,16,1L16,1z"/>
	</g>
</g>
<g>
	<polygon style="fill:#DFF0FE;" points="22.248,33.687 23.931,32.004 27.216,34.865 25.329,36.751 19.951,39.048  "/>
	<g>
		<path style="fill:#4788C7;" d="M23.954,32.687l2.529,2.203l-1.439,1.439l-4.142,1.769l1.768-4.127L23.954,32.687 M23.907,31.32    l-2.081,2.081L19,39.998l6.614-2.825l2.334-2.334L23.907,31.32L23.907,31.32z"/>
	</g>
</g>
<g>
	<polygon style="fill:#4788C7;" points="20.604,36.261 19.002,40 22.751,38.399  "/>
</g>
<g>
	<path style="fill:#B6DCFE;" d="M34.906,21.018l0.885-0.884c0.41-0.411,0.955-0.636,1.536-0.636c0.58,0,1.126,0.226,1.536,0.636   c0.848,0.847,0.848,2.226,0,3.073l-0.884,0.884L34.906,21.018z"/>
	<g>
		<path style="fill:#4788C7;" d="M37.327,19.998c0.447,0,0.867,0.174,1.183,0.49c0.652,0.652,0.652,1.714,0,2.366l-0.53,0.53    l-2.366-2.366l0.53-0.53C36.46,20.172,36.88,19.998,37.327,19.998 M37.327,18.998c-0.684,0-1.368,0.261-1.89,0.783L34.2,21.018    l3.78,3.78l1.237-1.237c1.044-1.044,1.044-2.736,0-3.78C38.695,19.259,38.011,18.998,37.327,18.998L37.327,18.998z"/>
	</g>
</g>
<g>
	<path style="fill:#B6DCFE;" d="M25.893,36.187c-0.034-0.054-0.073-0.108-0.118-0.161c-0.221-0.258-0.522-0.424-0.9-0.495   c-0.177-0.793-0.803-1.21-1.384-1.36c-0.103-0.474-0.373-0.809-0.713-1.015l10.516-10.524l3.073,3.073L25.893,36.187z"/>
	<g>
		<path style="fill:#4788C7;" d="M33.293,23.339l2.366,2.366l-9.749,9.757c-0.161-0.131-0.368-0.254-0.631-0.342    c-0.255-0.704-0.813-1.132-1.383-1.346c-0.091-0.248-0.223-0.463-0.384-0.645L33.293,23.339 M33.293,21.925L21.827,33.401    c0,0,0.005,0,0.015,0c0.137,0,1.194,0.038,1.194,1.205c0,0,1.388,0.043,1.388,1.386c1.38,0,1.191,1.182,1.191,1.182l11.459-11.468    L33.293,21.925L33.293,21.925z"/>
	</g>
</g>
<g>
	
		<rect x="33.891" y="21.308" transform="matrix(0.7071 -0.7071 0.7071 0.7071 -6.2003 31.992)" style="fill:#DFF0FE;" width="3.254" height="4.346"/>
	<g>
		<path style="fill:#4788C7;" d="M35.131,21.501l2.366,2.366l-1.594,1.594l-2.366-2.366L35.131,21.501 M35.131,20.086l-3.008,3.008    l3.78,3.78l3.008-3.008L35.131,20.086L35.131,20.086z"/>
	</g>
</g>
</svg>
